<svg data-v-22db9086="" version="1.0" 
  xmlns="http://www.w3.org/2000/svg" 
  xmlns:xlink="http://www.w3.org/1999/xlink" width="100%" height="100%" viewBox="0 0 340.000000 250.000000" preserveAspectRatio="xMidYMid meet" color-interpolation-filters="sRGB" class="el-tooltip" style="margin: auto;">
  <rect data-v-22db9086="" x="0" y="0" width="100%" height="100%" fill="#F54691" fill-opacity="1"></rect>
  <rect data-v-22db9086="" x="0" y="0" width="100%" height="100%" fill="url(#watermark)" fill-opacity="1" class="watermarklayer"></rect>
  <g data-v-22db9086="" fill="#ffffff" class="icon-text-wrapper icon-svg-group iconsvg" transform="translate(82.0250015258789,66.42375183105469)">
    <g fill="#ffffff" class="iconsvg-imagesvg" transform="translate(57.974998474121094,0)">
      <rect fill="#ffffff" fill-opacity="0" stroke-width="2" x="0" y="0" width="60" height="60" class="image-rect"></rect>
      <svg filter="url(#colors2232576746)" viewBox="0 0 60 67.9326923076923" x="0" y="0" width="60" height="60" hollow-target="iconBnOutline" class="image-svg-svg">
        <g mask="url(#de8c6c59-037e-4bc2-a4fe-9b546d6bc84d)">
          <svg xmlns="http://www.w3.org/2000/svg" 
            xmlns:xlink="http://www.w3.org/1999/xlink" xml:space="preserve" version="1.1" style="shape-rendering:geometricPrecision;text-rendering:geometricPrecision;image-rendering:optimizeQuality;" viewBox="0 0 312 353.25" x="0" y="0" fill-rule="evenodd" clip-rule="evenodd" width="60" height="67.9326923076923" filtersec="colorsf4308296889">
            <defs></defs>
            <g>
              <path class="fil0" d="M312 99l0 155c0,8 -4,15 -11,19l-135 78c-6,3 -14,3 -21,0l-134 -78c-7,-4 -11,-11 -11,-19l0 -155c0,-8 4,-14 11,-18l134 -78c7,-4 15,-4 21,0l135 78c7,4 11,10 11,18zm-32 -1l-118 -68c-4,-3 -8,-3 -12,0l-118 68c-4,2 -7,6 -7,11l0 143 125 72c4,2 8,2 12,0l118 -68c4,-2 6,-6 6,-11l0 -136c0,-5 -2,-9 -6,-11z"></path>
            </g>
          </svg>
        </g>
        <g>
          <image href="https://static.thenounproject.com/png/780605-200.png" width="45" height="50.949519230769" x="7.5" y="8.491586538461654"></image>
        </g>
        <mask id="de8c6c59-037e-4bc2-a4fe-9b546d6bc84d">
          <g fill="white">
            <svg xmlns="http://www.w3.org/2000/svg" 
              xmlns:xlink="http://www.w3.org/1999/xlink" xml:space="preserve" version="1.1" style="shape-rendering:geometricPrecision;text-rendering:geometricPrecision;image-rendering:optimizeQuality;" viewBox="0 0 312 353.25" x="0" y="0" fill-rule="evenodd" clip-rule="evenodd" width="60" height="67.9326923076923" filtersec="colorsf4308296889">
              <defs></defs>
              <g>
                <path d="M312 99l0 155c0,8 -4,15 -11,19l-135 78c-6,3 -14,3 -21,0l-134 -78c-7,-4 -11,-11 -11,-19l0 -155c0,-8 4,-14 11,-18l134 -78c7,-4 15,-4 21,0l135 78c7,4 11,10 11,18zm-32 -1l-118 -68c-4,-3 -8,-3 -12,0l-118 68c-4,2 -7,6 -7,11l0 143 125 72c4,2 8,2 12,0l118 -68c4,-2 6,-6 6,-11l0 -136c0,-5 -2,-9 -6,-11z"></path>
              </g>
            </svg>
          </g>
          <g fill="black" filter="url(#b480c8aa-b217-422f-9ca2-2275a19ddf5b)">
            <image href="https://static.thenounproject.com/png/780605-200.png" width="45" height="50.949519230769" x="7.5" y="8.491586538461654"></image>
          </g>
          <defs>
            <filter id="b480c8aa-b217-422f-9ca2-2275a19ddf5b">
              <feGaussianBlur in="SourceGraphic" stdDeviation="1.26"></feGaussianBlur>
              <feComponentTransfer>
                <feFuncA type="discrete" tableValues="0 1 1 1 1 1 1 1 1 1 1 1 1 1 0"></feFuncA>
              </feComponentTransfer>
            </filter>
          </defs>
        </mask>
      </svg>
      <defs>
        <filter id="colors2232576746">
          <feColorMatrix type="matrix" values="0 0 0 0 0.99609375  0 0 0 0 0.99609375  0 0 0 0 0.99609375  0 0 0 1 0" class="icon-fecolormatrix"></feColorMatrix>
        </filter>
        <filter id="colorsf4308296889">
          <feColorMatrix type="matrix" values="0 0 0 0 0.99609375  0 0 0 0 0.99609375  0 0 0 0 0.99609375  0 0 0 1 0" class="icon-fecolormatrix"></feColorMatrix>
        </filter>
        <filter id="colorsb1513342195">
          <feColorMatrix type="matrix" values="0 0 0 0 0  0 0 0 0 0  0 0 0 0 0  0 0 0 1 0" class="icon-fecolormatrix"></feColorMatrix>
        </filter>
      </defs>
    </g>
    <g transform="translate(0,67)">
      <g class="tp-name iconsvg-namesvg" transform="translate(0,0)">
        <g>
          <path d="M36.72-12.46Q38.12-8.91 40.07-6.30Q42.03-3.69 44.73-1.67L44.73-1.67Q43.83-0.09 42.28 1.30Q40.73 2.70 39.06 3.38L39.06 3.38Q36.59 0.67 34.52-4.54L34.52-4.54Q32.22 0.63 28.48 3.33L28.48 3.33Q27.40 2.97 26.10 2.05Q24.79 1.13 23.80 0.04L23.80 0.04L23.94 1.84Q22.50 2.79 20.50 3.22Q18.50 3.65 16.56 3.55L16.56 3.55Q17.55 0.32 17.55-4.05L17.55-4.05Q16.11-1.03 14.98 0.09L14.98 0.09Q11.92-1.57 10.39-5.04L10.39-5.04Q10.75-5.22 11.52-5.94L11.52-5.94Q10.35-5.98 8.10-5.98L8.10-5.98L2.83-5.04L2.83-10.21Q2.83-20.97 2.52-23.63L2.52-23.63Q5.00-23.85 8.78-23.85L8.78-23.85Q12.60-23.85 15.07-23.63L15.07-23.63Q14.40-24.70 13.99-26.12Q13.59-27.54 13.63-28.66L13.63-28.66Q20.34-28.53 25.83-29.70L25.83-29.70Q27.18-27.36 27.18-24.97L27.18-24.97Q25.33-24.43 23.63-24.12L23.63-24.12L23.63-19.80Q24.61-19.80 25.06-19.75L25.06-19.75L24.39-20.79L29.74-23.67L31.27-19.21L31.27-23.04L30.60-30.60Q32.31-30.46 34.31-30.08Q36.31-29.70 37.62-29.16L37.62-29.16L36.95-23.31L36.95-18.77L38.52-23.67L43.88-20.79L39.28-13.18L36.90-14.63Q36.81-13.18 36.72-12.46L36.72-12.46ZM17.55-23.36Q16.02-23.27 15.34-23.27L15.34-23.27L15.25-23.36Q15.16-22.41 15.07-19.71L15.07-19.71Q16.61-19.80 17.55-19.80L17.55-19.80L17.55-23.36ZM8.55-10.39L9.95-10.39L9.95-19.44L8.55-19.44L8.55-10.39ZM23.71-1.93Q26.86-3.87 28.93-7.65Q31.00-11.43 31.23-15.21L31.23-15.21L29.02-13.81L27.49-16.11Q27.22-15.16 26.82-14.49L26.82-14.49Q25.11-14.67 23.63-14.71L23.63-14.71L23.63-13.63L28.80-9.86L25.70-5.26L23.63-8.23L23.63-5.58Q23.63-3.24 23.71-1.93L23.71-1.93ZM14.98-10.21Q16.34-12.06 17.55-14.13L17.55-14.13L17.55-14.71L14.98-14.58L14.98-10.21ZM78.75-12.51Q80.91-9.95 83.68-7.83Q86.44-5.71 89.59-4.27L89.59-4.27Q88.74-2.83 87.28-1.44Q85.81-0.04 84.47 0.67L84.47 0.67Q81-1.67 77.58-5.98L77.58-5.98Q77.58-1.13 77.94 1.62L77.94 1.62Q76.81 2.43 74.90 2.90Q72.99 3.38 71.28 3.38L71.28 3.38L70.52 3.33Q71.37 0.04 71.37-4.68L71.37-4.68L71.37-6.84Q67.68-2.11 63.99 0.36L63.99 0.36Q62.59-0.36 61.27-1.62Q59.94-2.88 59.09-4.37L59.09-4.37Q59.76-4.68 61.02-5.40L61.02-5.40Q59.27-5.54 57.06-5.54L57.06-5.54Q54.63-5.54 52.24-5.40L52.24-5.40L48.20-4.72L48.20-5.04L48.15-5.04L48.20-5.67Q48.20-20.70 47.97-24.79L47.97-24.79L47.84-25.65Q50.35-25.88 54.95-25.88L54.95-25.88Q59.53-25.88 62.01-25.65L62.01-25.65L62.05-25.65L61.92-23.58L66.19-28.26L71.28-22.00L70.69-30.24Q72.41-30.24 74.92-29.74Q77.44-29.25 78.62-28.53L78.62-28.53L77.72-21.78L82.98-28.26L87.84-22.95L80.23-18.31L77.67-21.42L77.58-20.79L77.58-18.13Q83.52-18.04 87.93-17.64L87.93-17.64Q87.70-14.13 86.31-11.56L86.31-11.56Q83.66-12.20 78.75-12.51L78.75-12.51ZM68.94-18.31L61.88-22.63L61.74-17.68Q66.19-18.09 71.37-18.13L71.37-18.13L71.37-20.79L71.33-21.20L68.94-18.31ZM55.98-20.52L54.27-20.52L54.27-10.93L55.98-10.98L55.98-20.52ZM61.70-5.85Q65.84-8.50 69.30-12.51L69.30-12.51Q65.38-12.38 63-11.88L63-11.88Q62.10-13.59 61.74-15.21L61.74-15.21Q61.70-11.47 61.70-5.85L61.70-5.85ZM122.44-19.35Q130.37-19.26 132.39-19.17L132.39-19.17Q132.21-17.82 131.76-16.47Q131.31-15.12 130.63-14.08L130.63-14.08Q127.31-14.31 112.50-14.31L112.50-14.31Q97.69-14.31 94.36-14.08L94.36-14.08Q93.64-15.25 93.17-16.61Q92.70-17.95 92.61-19.17L92.61-19.17Q94.72-19.26 103.23-19.35L103.23-19.35L101.88-22.05Q100.17-22.05 96.93-21.91L96.93-21.91Q96.17-22.86 95.74-24.25Q95.31-25.65 95.17-26.95L95.17-26.95Q98.50-27.13 107.78-27.22L107.78-27.22L107.14-29.65L117.99-29.65L117.31-27.22Q126.77-27.13 130.23-26.95L130.23-26.95Q129.69-23.40 128.47-21.91L128.47-21.91L123.75-22.05L122.44-19.35ZM110.03-19.35Q110.97-19.39 112.81-19.39L112.81-19.39Q114.70-19.39 115.61-19.35L115.61-19.35L115.52-22.14L110.16-22.14L110.03-19.35ZM127.71-12.46L127.80-12.46Q127.35-9.90 127.35-1.84L127.35-1.84L127.35 2.70L127.26 2.70Q122.98 2.48 112.86 2.48L112.86 2.48Q102.83 2.48 98.46 2.70L98.46 2.70L98.46-0.77Q98.46-9.72 98.01-12.46L98.01-12.46Q101.56-12.69 112.86-12.69L112.86-12.69Q124.25-12.69 127.71-12.46L127.71-12.46ZM119.83-8.28Q117.77-8.32 113.17-8.32L113.17-8.32Q108.59-8.32 106.47-8.28L106.47-8.28L106.47-7.15L119.83-7.15L119.83-8.28ZM106.47-1.89Q108.22-1.93 112.09-1.93L112.09-1.93Q117.45-1.93 119.83-1.89L119.83-1.89L119.83-3.10L106.47-3.10L106.47-1.89ZM175.72-11.47Q173.30-11.65 162.22-11.74L162.22-11.74L162.22-1.21Q161.01 0.14 159.32 1.46Q157.63 2.79 155.93 3.60L155.93 3.60Q154.13 2.70 152.24 1.01Q150.34-0.67 149.22-2.38L149.22-2.38Q152.28-2.83 155.47-3.96L155.47-3.96L155.47-11.74Q143.78-11.65 140.94-11.47L140.94-11.47L142.34-27.36Q148.54-27.40 156.91-28.15Q165.28-28.89 169.65-29.74L169.65-29.74Q171.68-27.13 172.03-24.39L172.03-24.39Q170.19-23.94 166.28-23.49Q162.36-23.04 157.77-22.68L157.77-22.68Q161.73-22.18 163.26-21.29L163.26-21.29L162.68-16.79Q173.34-16.79 177.07-16.56L177.07-16.56Q176.72-13.50 175.72-11.47L175.72-11.47ZM155.12-16.79L154.53-22.45Q152.95-22.36 148.95-22.14L148.95-22.14L148.46-16.65L155.12-16.79ZM150.53-11.12L153.18-8.28L141.79 1.89L136.57-4.59L150.53-11.12ZM165.91-11.12L178.47-4.59L173.30 1.89L163.22-8.28L165.91-11.12Z" transform="translate(-2.52, 30.6)"></path>
        </g>        <!---->        <!---->        <!---->        <!---->        <!---->        <!---->
        <g fill="#ffffff" transform="translate(178.9499969482422,0)"></g>
      </g>
      <g class="tp-slogan iconsvg-slogansvg" fill="#ffffff" transform="translate(0,41.20000076293945)">        <!---->
        <rect x="0" height="1" y="3.9750003814697266" width="48.790000915527344"></rect>
        <rect height="1" y="3.9750003814697266" width="48.790000915527344" x="127.15999603271484"></rect>
        <g transform="translate(51.790000915527344,0)">
          <path d="M0.19-1.92L0.19-2.77L1.27-2.77L1.27-2.16Q1.27-0.75 2.58-0.75L2.58-0.75Q3.94-0.75 3.94-2.25L3.94-2.25L3.94-8.58L5.11-8.58L5.11-2.30Q5.06 0.09 2.63 0.14L2.63 0.14Q0.33 0.09 0.19-1.92L0.19-1.92ZM7.08-8.58L8.25-8.58L8.25 0L7.08 0L7.08-8.58ZM15.89-3.19L15.89-8.58L17.06-8.58L17.06-3.05Q16.92 0.05 13.55 0.14L13.55 0.14Q10.41 0.05 10.27-2.86L10.27-2.86L10.27-8.58L11.44-8.58L11.44-3.19Q11.48-0.84 13.59-0.80L13.59-0.80Q15.89-0.84 15.89-3.19L15.89-3.19ZM27.09-8.58L27.09 0L25.97 0L25.97-5.06Q25.97-5.77 25.97-7.22L25.97-7.22L23.53 0L22.36 0L19.97-7.22L19.92-7.22Q19.92-6.70 19.97-5.67L19.97-5.67Q19.97-5.16 19.97-5.06L19.97-5.06L19.97 0L18.80 0L18.80-8.58L20.48-8.58L22.97-1.31L25.41-8.58L27.09-8.58ZM28.97-8.58L30.14-8.58L30.14 0L28.97 0L28.97-8.58ZM43.69-8.58L43.69 0L42.56 0L42.56-5.06Q42.56-5.77 42.56-7.22L42.56-7.22L40.13 0L38.95 0L36.56-7.22L36.52-7.22Q36.52-6.70 36.56-5.67L36.56-5.67Q36.56-5.16 36.56-5.06L36.56-5.06L36.56 0L35.39 0L35.39-8.58L37.08-8.58L39.56-1.31L42-8.58L43.69-8.58ZM51.05-3.19L51.05-8.58L52.22-8.58L52.22-3.05Q52.08 0.05 48.70 0.14L48.70 0.14Q45.56 0.05 45.42-2.86L45.42-2.86L45.42-8.58L46.59-8.58L46.59-3.19Q46.64-0.84 48.75-0.80L48.75-0.80Q51.05-0.84 51.05-3.19L51.05-3.19ZM60.28-6.09L60.28-6.09L59.20-6.09Q59.11-7.73 57.05-7.83L57.05-7.83Q55.13-7.78 55.13-6.33L55.13-6.33Q55.13-5.39 56.16-5.25L56.16-5.25L58.59-4.69Q60.52-4.22 60.52-2.34L60.52-2.34Q60.47 0.05 57.14 0.14L57.14 0.14Q55.31 0.14 54.56-0.61L54.56-0.61Q53.63-1.31 53.67-2.77L53.67-2.77L54.80-2.77Q54.84-0.80 57.14-0.75L57.14-0.75Q59.39-0.80 59.44-2.20L59.44-2.20Q59.63-3.38 57.56-3.75L57.56-3.75L55.78-4.13Q53.95-4.64 53.95-6.19L53.95-6.19Q54.09-8.72 56.95-8.81L56.95-8.81Q60.19-8.81 60.28-6.09ZM62.16-8.58L63.33-8.58L63.33 0L62.16 0L62.16-8.58ZM72.47-6.05L72.47-6.05L71.34-6.05Q70.92-7.78 68.95-7.83L68.95-7.83Q66.23-7.69 66.14-4.36L66.14-4.36Q66.14-0.80 69-0.80L69-0.80Q70.97-0.84 71.44-3.19L71.44-3.19L72.56-3.19Q72.05 0.05 68.77 0.14L68.77 0.14Q65.02 0 64.92-4.31L64.92-4.31Q65.11-8.63 68.95-8.81L68.95-8.81Q72-8.72 72.47-6.05Z" transform="translate(-0.1875, 8.8125)"></path>
        </g>
      </g>
    </g>
  </g>
</svg>